<?xml version="1.0" encoding="utf-8"?>
<!-- Generator: Adobe Illustrator 17.0.0, SVG Export Plug-In . SVG Version: 6.00 Build 0)  -->
<!DOCTYPE svg PUBLIC "-//W3C//DTD SVG 1.1//EN" "http://www.w3.org/Graphics/SVG/1.1/DTD/svg11.dtd">
<svg version="1.1" xmlns="http://www.w3.org/2000/svg" xmlns:xlink="http://www.w3.org/1999/xlink" x="0px" y="0px" width="19px"
	 height="49px" viewBox="0 0 19 49" enable-background="new 0 0 19 49" xml:space="preserve">
<g id="Layer_1">
</g>
<g id="Layer_2">
	<path fill="#8F9197" d="M3,3v12h16V3H3z M17,13H5V5h12V13z"/>
	<path fill="#8F9197" d="M12.75,6.464c-0.875,0-1.501,3.417-2.125,3.417C9.916,9.881,9.5,8.25,8.833,8.25
		c-0.83,0-2.793,3.792-2.793,3.792h9.904C15.944,12.042,13.5,6.464,12.75,6.464z"/>
	<circle fill="#8F9197" cx="6.975" cy="7.018" r="1.184"/>
	<polygon fill="#8F9197" points="0,13 2,13 2,2 16,2 16,0 0,0 	"/>
</g>
<g id="Layer_2_copy">
	<circle fill="#BBBBBB" cx="6.975" cy="37.018" r="1.184"/>
	<polygon fill="#BBBBBB" points="0,43 2,43 2,32 14,32 14,30 0,30 	"/>
	<g id="Layer_5">
		<g>
			<polygon fill="#BBBBBB" points="17.846,43.677 11,36.982 11,46.495 13.343,44.242 15.636,49.018 17.126,48.173 14.796,43.677 			
				"/>
		</g>
	</g>
	<g id="Layer_5_copy_2">
		<path fill="#BBBBBB" d="M10,39.256c-0.175,0.491-0.342,0.874-0.509,0.874c-0.534,0-0.847-1.464-1.349-1.464
			C7.518,38.667,6.041,42,6.041,42H10V39.256z"/>
	</g>
	<g id="Layer_5_copy">
		<g>
			<polygon fill="#BBBBBB" points="14.796,43.677 15.481,45 15.481,45 			"/>
			<polygon fill="#BBBBBB" points="10,43 5,43 5,35 14,35 14,38.517 16,40.473 16,33 3,33 3,45 10,45 			"/>
		</g>
	</g>
</g>
</svg>
