<?xml version="1.0" encoding="utf-8"?> <!-- Generator: Adobe Illustrator 17.0.0, SVG Export Plug-In . SVG Version: 6.00 Build 0)  -->   <!DOCTYPE svg PUBLIC "-//W3C//DTD SVG 1.1//EN" "http://www.w3.org/Graphics/SVG/1.1/DTD/svg11.dtd">     <svg version="1.1" id="Layer_2" xmlns="http://www.w3.org/2000/svg" xmlns:xlink="http://www.w3.org/1999/xlink" x="0px" y="0px"  width="19.004px" height="177px" viewBox="0 0 19.004 177" enable-background="new 0 0 19.004 177" xml:space="preserve">       <g>         <path fill="#8F9197" d="M8.162,13.222l-0.016,0.016l0,0C8.153,13.231,8.156,13.228,8.162,13.222z"/>         <path fill="#8F9197" d="M10.22,8.078L8.661,9.637c0,0,1.382-0.289,2.559,0.527l0.527-0.527l0.016-0.016 c0.566-0.566,1.459-0.566,2.025,0l0.506,0.506c0.566,0.566,0.598,1.492,0.032,2.057l-3.16,3.16c-0.566,0.566-1.524,0.566-2.09,0 l-0.49-0.49l-1.543,1.543l0.49,0.49c0.37,0.37,0.804,0.643,1.267,0.823c1.312,0.501,2.858,0.228,3.909-0.823l3.16-3.16 c1.421-1.421,1.389-3.723-0.032-5.143l-0.506-0.506C13.91,6.657,11.641,6.657,10.22,8.078z"/>         <path fill="#8F9197" d="M10.205,11.179c-1.299-0.521-2.832-0.254-3.893,0.807l-3.294,3.294c-1.421,1.421-1.453,3.723-0.032,5.143 l0.506,0.506c1.421,1.421,3.755,1.421,5.176,0l1.527-1.527c0,0-1.376,0.283-2.575-0.511l-0.495,0.495 c-0.566,0.566-1.524,0.566-2.09,0L4.53,18.88c-0.566-0.566-0.534-1.492,0.032-2.057l3.278-3.278l0.016-0.016 c0.566-0.566,1.459-0.566,2.025,0l0.506,0.506c0.006,0.006,0.01,0.01,0.016,0.016l1.543-1.543c-0.006-0.006-0.01-0.01-0.016-0.016 l-0.506-0.506C11.064,11.625,10.646,11.355,10.205,11.179z"/>       </g>       <g>         <path fill="#8F9197" d="M16.653,39.973h-2.768l-1.657-1.524c0,0-0.008-0.008-0.012-0.008l-0.008-0.008l0,0 c-0.246-0.246-0.578-0.402-0.955-0.402H7.809c-0.402,0-0.759,0.172-1.009,0.447v0.004l-1.62,1.491H2.351 c-0.763,0-1.378,0.599-1.378,1.361v8.287c0,0.763,0.615,1.382,1.378,1.382h14.302c0.759,0,1.378-0.619,1.378-1.382v-8.287 C18.031,40.572,17.412,39.973,16.653,39.973z M9.502,49.266c-2.087,0-3.789-1.706-3.789-3.797c0-2.095,1.702-3.797,3.789-3.797 c2.091,0,3.789,1.702,3.789,3.797C13.291,47.56,11.593,49.266,9.502,49.266z"/>         <path fill="#8F9197" d="M9.502,42.974c-1.376,0-2.488,1.116-2.488,2.495c0,1.376,1.112,2.495,2.488,2.495 c1.372,0,2.488-1.116,2.488-2.495C11.99,44.089,10.875,42.974,9.502,42.974z"/>       </g>       <g>         <rect x="4.462" y="71.792" fill="#8F9197" width="10.081" height="1.583"/>         <polygon fill="#8F9197" points="9.668,68.542 7.503,81.041 5.544,81.041 7.708,68.542 "/>         <polygon fill="#8F9197" points="13.626,68.542 11.462,81.041 9.502,81.041 11.667,68.542 "/>         <rect x="4.377" y="76" fill="#8F9197" width="10.081" height="1.583"/>       </g>       <g>         <path fill="#8F9197" d="M17,106c0,1.105-0.895,2-2,2H5c-1.105,0-2-0.895-2-2v-6c0-1.105,0.895-2,2-2h10c1.105,0,2,0.895,2,2V106z" />         <path fill="#8F9197" d="M6.125,108c3.562,0,3.875,0,3.875,0s-2,3.938-6,3.938C6.25,110.5,6.125,108,6.125,108z"/>       </g>       <path fill="#8F9197" d="M15,129.583v11.448c0,0.531-0.489,0.969-0.994,0.969H5.023c-0.651,0-0.688-1-0.042-1h8.021 c0.552,0,0.998-0.448,0.998-1v-11c0-0.552-0.446-1-0.998-1H11v11.542H9V128H4.002C3.45,128,3,128.448,3,129v2.643V140v1 c0,1.378,0.624,2,2.002,2h9c1.378,0,1.998-0.559,1.998-1.938v-11.479H15z"/>       <path fill="#8F9197" d="M12,161v-3H6v3H3v1h10v1H3v9h12v-11H12z M11,161H7v-2h4V161z"/>     </svg> 